<mxfile host="app.diagrams.net" modified="2023-07-07T10:46:30.264Z" agent="Mozilla/5.0 (Windows NT 10.0; Win64; x64) AppleWebKit/537.36 (KHTML, like Gecko) Chrome/114.0.0.0 Safari/537.36 Edg/114.0.1823.67" etag="4UZmsndoVECwadLHPuSY" version="21.6.1" type="github">
  <diagram name="第 1 页" id="OpDthlvLPTq0gWTyiU4q">
    <mxGraphModel dx="2846" dy="1156" grid="1" gridSize="10" guides="1" tooltips="1" connect="1" arrows="1" fold="1" page="1" pageScale="1" pageWidth="827" pageHeight="1169" math="0" shadow="0">
      <root>
        <mxCell id="0" />
        <mxCell id="1" parent="0" />
        <mxCell id="nN0O7QRVwU9NLzJ40oYi-1" value="&lt;font style=&quot;font-size: 40px;&quot;&gt;Guest VM&lt;/font&gt;" style="rounded=0;whiteSpace=wrap;html=1;align=center;" vertex="1" parent="1">
          <mxGeometry x="-460" y="160" width="800" height="80" as="geometry" />
        </mxCell>
        <mxCell id="nN0O7QRVwU9NLzJ40oYi-2" value="" style="rounded=0;whiteSpace=wrap;html=1;fillColor=#FFFFCC;" vertex="1" parent="1">
          <mxGeometry x="-460" y="280" width="800" height="520" as="geometry" />
        </mxCell>
        <mxCell id="nN0O7QRVwU9NLzJ40oYi-3" value="&lt;font style=&quot;font-size: 40px;&quot;&gt;Qemu&lt;/font&gt;" style="text;html=1;strokeColor=none;fillColor=none;align=center;verticalAlign=middle;whiteSpace=wrap;rounded=0;" vertex="1" parent="1">
          <mxGeometry x="-460" y="280" width="140" height="60" as="geometry" />
        </mxCell>
        <mxCell id="nN0O7QRVwU9NLzJ40oYi-4" value="&lt;font style=&quot;font-size: 32px;&quot;&gt;Migration&lt;br style=&quot;&quot;&gt;Module&lt;/font&gt;" style="rounded=0;whiteSpace=wrap;html=1;fontSize=20;fillColor=#CCCCCC;" vertex="1" parent="1">
          <mxGeometry x="-420" y="360" width="240" height="80" as="geometry" />
        </mxCell>
        <mxCell id="nN0O7QRVwU9NLzJ40oYi-5" value="&lt;font style=&quot;font-size: 32px;&quot;&gt;Backup Image&lt;br style=&quot;&quot;&gt;Module&lt;/font&gt;" style="rounded=0;whiteSpace=wrap;html=1;fillColor=#CCCCCC;fontSize=20;" vertex="1" parent="1">
          <mxGeometry x="-420" y="500" width="240" height="80" as="geometry" />
        </mxCell>
        <mxCell id="nN0O7QRVwU9NLzJ40oYi-8" value="" style="endArrow=classic;html=1;rounded=0;strokeWidth=3;" edge="1" parent="1">
          <mxGeometry width="50" height="50" relative="1" as="geometry">
            <mxPoint x="-700" y="230" as="sourcePoint" />
            <mxPoint x="-540" y="230" as="targetPoint" />
          </mxGeometry>
        </mxCell>
        <mxCell id="nN0O7QRVwU9NLzJ40oYi-9" value="" style="endArrow=classic;html=1;rounded=0;strokeWidth=3;strokeColor=#0066CC;" edge="1" parent="1">
          <mxGeometry width="50" height="50" relative="1" as="geometry">
            <mxPoint x="-700" y="370" as="sourcePoint" />
            <mxPoint x="-540" y="370" as="targetPoint" />
          </mxGeometry>
        </mxCell>
        <mxCell id="nN0O7QRVwU9NLzJ40oYi-10" value="" style="endArrow=none;dashed=1;html=1;rounded=0;" edge="1" parent="1">
          <mxGeometry width="50" height="50" relative="1" as="geometry">
            <mxPoint x="-760" y="820" as="sourcePoint" />
            <mxPoint x="700" y="820" as="targetPoint" />
          </mxGeometry>
        </mxCell>
        <mxCell id="nN0O7QRVwU9NLzJ40oYi-11" value="&lt;font style=&quot;font-size: 24px;&quot;&gt;User&lt;/font&gt;" style="text;html=1;strokeColor=none;fillColor=none;align=center;verticalAlign=middle;whiteSpace=wrap;rounded=0;" vertex="1" parent="1">
          <mxGeometry x="-760" y="780" width="120" height="40" as="geometry" />
        </mxCell>
        <mxCell id="nN0O7QRVwU9NLzJ40oYi-12" value="&lt;font style=&quot;font-size: 24px;&quot;&gt;Kernel&lt;/font&gt;" style="text;html=1;strokeColor=none;fillColor=none;align=center;verticalAlign=middle;whiteSpace=wrap;rounded=0;" vertex="1" parent="1">
          <mxGeometry x="-760" y="820" width="120" height="40" as="geometry" />
        </mxCell>
        <mxCell id="nN0O7QRVwU9NLzJ40oYi-14" value="&lt;font style=&quot;font-size: 24px;&quot;&gt;0) start migration&lt;/font&gt;" style="text;html=1;strokeColor=none;fillColor=none;align=center;verticalAlign=middle;whiteSpace=wrap;rounded=0;" vertex="1" parent="1">
          <mxGeometry x="-600" y="400" width="200" height="40" as="geometry" />
        </mxCell>
        <mxCell id="nN0O7QRVwU9NLzJ40oYi-15" value="&lt;font style=&quot;font-size: 24px;&quot;&gt;control flow&lt;/font&gt;" style="text;html=1;strokeColor=none;fillColor=none;align=center;verticalAlign=middle;whiteSpace=wrap;rounded=0;" vertex="1" parent="1">
          <mxGeometry x="-700" y="190" width="160" height="40" as="geometry" />
        </mxCell>
        <mxCell id="nN0O7QRVwU9NLzJ40oYi-16" value="&lt;font style=&quot;font-size: 24px;&quot;&gt;1.1) activate&lt;/font&gt;" style="text;html=1;strokeColor=none;fillColor=none;align=center;verticalAlign=middle;whiteSpace=wrap;rounded=0;" vertex="1" parent="1">
          <mxGeometry x="-380" y="450" width="160" height="40" as="geometry" />
        </mxCell>
        <mxCell id="nN0O7QRVwU9NLzJ40oYi-17" value="&lt;font style=&quot;font-size: 32px;&quot;&gt;RAM Pre-copy Handler&lt;/font&gt;" style="rounded=0;whiteSpace=wrap;html=1;fillColor=#CCCCCC;fontSize=20;" vertex="1" parent="1">
          <mxGeometry x="20" y="360" width="280" height="80" as="geometry" />
        </mxCell>
        <mxCell id="nN0O7QRVwU9NLzJ40oYi-18" value="&lt;font style=&quot;&quot;&gt;&lt;font style=&quot;font-size: 24px;&quot;&gt;1.3) start pre-copy&lt;/font&gt;&lt;br&gt;&lt;/font&gt;" style="text;html=1;strokeColor=none;fillColor=none;align=center;verticalAlign=middle;whiteSpace=wrap;rounded=0;" vertex="1" parent="1">
          <mxGeometry x="-180" y="350" width="200" height="40" as="geometry" />
        </mxCell>
        <mxCell id="nN0O7QRVwU9NLzJ40oYi-19" value="&lt;font style=&quot;font-size: 24px;&quot;&gt;1.2) backup setup&lt;/font&gt;" style="text;html=1;strokeColor=none;fillColor=none;align=center;verticalAlign=middle;whiteSpace=wrap;rounded=0;" vertex="1" parent="1">
          <mxGeometry x="-180" y="500" width="200" height="40" as="geometry" />
        </mxCell>
        <mxCell id="nN0O7QRVwU9NLzJ40oYi-20" value="&lt;font style=&quot;font-size: 32px;&quot;&gt;NFS Interface&lt;/font&gt;" style="rounded=0;whiteSpace=wrap;html=1;align=center;fontSize=20;" vertex="1" parent="1">
          <mxGeometry x="420" y="720" width="280" height="80" as="geometry" />
        </mxCell>
        <mxCell id="nN0O7QRVwU9NLzJ40oYi-21" value="&lt;font style=&quot;font-size: 24px;&quot;&gt;2.1) memory pre-copy&lt;/font&gt;" style="text;html=1;strokeColor=none;fillColor=none;align=center;verticalAlign=middle;whiteSpace=wrap;rounded=0;" vertex="1" parent="1">
          <mxGeometry x="360" y="340" width="320" height="40" as="geometry" />
        </mxCell>
        <mxCell id="nN0O7QRVwU9NLzJ40oYi-22" value="" style="endArrow=classic;html=1;rounded=0;strokeWidth=3;dashed=1;dashPattern=1 1;" edge="1" parent="1">
          <mxGeometry width="50" height="50" relative="1" as="geometry">
            <mxPoint x="-700" y="290" as="sourcePoint" />
            <mxPoint x="-540" y="290" as="targetPoint" />
          </mxGeometry>
        </mxCell>
        <mxCell id="nN0O7QRVwU9NLzJ40oYi-23" value="&lt;font style=&quot;font-size: 24px;&quot;&gt;data updates&lt;/font&gt;" style="text;html=1;strokeColor=none;fillColor=none;align=center;verticalAlign=middle;whiteSpace=wrap;rounded=0;" vertex="1" parent="1">
          <mxGeometry x="-700" y="250" width="160" height="40" as="geometry" />
        </mxCell>
        <mxCell id="nN0O7QRVwU9NLzJ40oYi-24" value="&lt;font style=&quot;font-size: 24px;&quot;&gt;3.1) downtime&lt;/font&gt;" style="text;html=1;strokeColor=none;fillColor=none;align=center;verticalAlign=middle;whiteSpace=wrap;rounded=0;" vertex="1" parent="1">
          <mxGeometry x="-180" y="410" width="200" height="40" as="geometry" />
        </mxCell>
        <mxCell id="nN0O7QRVwU9NLzJ40oYi-25" value="&lt;font style=&quot;font-size: 32px;&quot;&gt;RAM Backup Handler&lt;/font&gt;" style="rounded=0;whiteSpace=wrap;html=1;fillColor=#CCCCCC;fontSize=20;" vertex="1" parent="1">
          <mxGeometry x="20" y="640" width="280" height="80" as="geometry" />
        </mxCell>
        <mxCell id="nN0O7QRVwU9NLzJ40oYi-26" value="&lt;font style=&quot;font-size: 24px;&quot;&gt;3.2) create backup thread&lt;/font&gt;" style="text;html=1;strokeColor=none;fillColor=none;align=center;verticalAlign=middle;whiteSpace=wrap;rounded=0;" vertex="1" parent="1">
          <mxGeometry x="-220" y="600" width="300" height="40" as="geometry" />
        </mxCell>
        <mxCell id="nN0O7QRVwU9NLzJ40oYi-27" value="&lt;font style=&quot;font-size: 24px;&quot;&gt;asynchronous IO&lt;/font&gt;" style="text;html=1;strokeColor=none;fillColor=none;align=center;verticalAlign=middle;whiteSpace=wrap;rounded=0;" vertex="1" parent="1">
          <mxGeometry x="-700" y="310" width="160" height="60" as="geometry" />
        </mxCell>
        <mxCell id="nN0O7QRVwU9NLzJ40oYi-28" value="" style="endArrow=classic;html=1;rounded=0;strokeWidth=3;strokeColor=#0066CC;entryX=0.5;entryY=0;entryDx=0;entryDy=0;" edge="1" parent="1" target="nN0O7QRVwU9NLzJ40oYi-20">
          <mxGeometry width="50" height="50" relative="1" as="geometry">
            <mxPoint x="300" y="420" as="sourcePoint" />
            <mxPoint x="500" y="820" as="targetPoint" />
            <Array as="points">
              <mxPoint x="560" y="420" />
            </Array>
          </mxGeometry>
        </mxCell>
        <mxCell id="nN0O7QRVwU9NLzJ40oYi-29" value="" style="endArrow=classic;html=1;rounded=0;strokeWidth=3;dashed=1;dashPattern=1 1;" edge="1" parent="1">
          <mxGeometry width="50" height="50" relative="1" as="geometry">
            <mxPoint x="-180" y="540" as="sourcePoint" />
            <mxPoint x="20" y="540" as="targetPoint" />
          </mxGeometry>
        </mxCell>
        <mxCell id="nN0O7QRVwU9NLzJ40oYi-30" value="" style="endArrow=classic;html=1;rounded=0;strokeWidth=3;dashed=1;dashPattern=1 1;" edge="1" parent="1">
          <mxGeometry width="50" height="50" relative="1" as="geometry">
            <mxPoint x="219.5" y="440" as="sourcePoint" />
            <mxPoint x="219.5" y="500" as="targetPoint" />
          </mxGeometry>
        </mxCell>
        <mxCell id="nN0O7QRVwU9NLzJ40oYi-31" value="" style="endArrow=classic;html=1;rounded=0;strokeWidth=3;dashed=1;dashPattern=1 1;" edge="1" parent="1">
          <mxGeometry width="50" height="50" relative="1" as="geometry">
            <mxPoint x="59.5" y="440" as="sourcePoint" />
            <mxPoint x="59.5" y="500" as="targetPoint" />
          </mxGeometry>
        </mxCell>
        <mxCell id="nN0O7QRVwU9NLzJ40oYi-32" value="" style="endArrow=classic;html=1;rounded=0;strokeWidth=3;" edge="1" parent="1">
          <mxGeometry width="50" height="50" relative="1" as="geometry">
            <mxPoint x="-180" y="390" as="sourcePoint" />
            <mxPoint x="20" y="390" as="targetPoint" />
          </mxGeometry>
        </mxCell>
        <mxCell id="nN0O7QRVwU9NLzJ40oYi-33" value="" style="endArrow=classic;html=1;rounded=0;strokeWidth=3;" edge="1" parent="1">
          <mxGeometry width="50" height="50" relative="1" as="geometry">
            <mxPoint x="20" y="410" as="sourcePoint" />
            <mxPoint x="-180" y="410" as="targetPoint" />
          </mxGeometry>
        </mxCell>
        <mxCell id="nN0O7QRVwU9NLzJ40oYi-34" value="" style="endArrow=classic;html=1;rounded=0;strokeWidth=3;" edge="1" parent="1">
          <mxGeometry width="50" height="50" relative="1" as="geometry">
            <mxPoint x="-220" y="440" as="sourcePoint" />
            <mxPoint x="-220" y="500" as="targetPoint" />
          </mxGeometry>
        </mxCell>
        <mxCell id="nN0O7QRVwU9NLzJ40oYi-35" value="" style="endArrow=classic;html=1;rounded=0;strokeWidth=3;strokeColor=#0066CC;entryX=0.25;entryY=0;entryDx=0;entryDy=0;" edge="1" parent="1" target="nN0O7QRVwU9NLzJ40oYi-20">
          <mxGeometry width="50" height="50" relative="1" as="geometry">
            <mxPoint x="300" y="680" as="sourcePoint" />
            <mxPoint x="420" y="820.5" as="targetPoint" />
            <Array as="points">
              <mxPoint x="490" y="680" />
            </Array>
          </mxGeometry>
        </mxCell>
        <mxCell id="nN0O7QRVwU9NLzJ40oYi-39" value="&lt;font style=&quot;font-size: 40px;&quot;&gt;KVM&lt;/font&gt;" style="rounded=0;whiteSpace=wrap;html=1;" vertex="1" parent="1">
          <mxGeometry x="-460" y="840" width="800" height="80" as="geometry" />
        </mxCell>
        <mxCell id="nN0O7QRVwU9NLzJ40oYi-40" value="" style="endArrow=none;dashed=1;html=1;rounded=0;" edge="1" parent="1">
          <mxGeometry width="50" height="50" relative="1" as="geometry">
            <mxPoint x="-760" y="940" as="sourcePoint" />
            <mxPoint x="700" y="940" as="targetPoint" />
          </mxGeometry>
        </mxCell>
        <mxCell id="nN0O7QRVwU9NLzJ40oYi-41" value="&lt;font style=&quot;font-size: 24px;&quot;&gt;Hardware&lt;/font&gt;" style="text;html=1;strokeColor=none;fillColor=none;align=center;verticalAlign=middle;whiteSpace=wrap;rounded=0;" vertex="1" parent="1">
          <mxGeometry x="-760" y="940" width="120" height="40" as="geometry" />
        </mxCell>
        <mxCell id="nN0O7QRVwU9NLzJ40oYi-42" value="&lt;font style=&quot;font-size: 40px;&quot;&gt;File System&lt;/font&gt;" style="rounded=0;whiteSpace=wrap;html=1;" vertex="1" parent="1">
          <mxGeometry x="420" y="840" width="280" height="80" as="geometry" />
        </mxCell>
        <mxCell id="nN0O7QRVwU9NLzJ40oYi-43" value="" style="endArrow=classic;html=1;rounded=0;strokeWidth=3;strokeColor=#0066CC;" edge="1" parent="1">
          <mxGeometry width="50" height="50" relative="1" as="geometry">
            <mxPoint x="520" y="800" as="sourcePoint" />
            <mxPoint x="520" y="840" as="targetPoint" />
          </mxGeometry>
        </mxCell>
        <mxCell id="nN0O7QRVwU9NLzJ40oYi-44" value="" style="endArrow=classic;html=1;rounded=0;strokeWidth=3;strokeColor=#0066CC;" edge="1" parent="1">
          <mxGeometry width="50" height="50" relative="1" as="geometry">
            <mxPoint x="600" y="840" as="sourcePoint" />
            <mxPoint x="600" y="800" as="targetPoint" />
          </mxGeometry>
        </mxCell>
        <mxCell id="nN0O7QRVwU9NLzJ40oYi-45" value="&lt;font style=&quot;font-size: 40px;&quot;&gt;Source Host&lt;/font&gt;" style="rounded=0;whiteSpace=wrap;html=1;" vertex="1" parent="1">
          <mxGeometry x="-460" y="960" width="800" height="80" as="geometry" />
        </mxCell>
        <mxCell id="nN0O7QRVwU9NLzJ40oYi-47" value="&lt;font style=&quot;font-size: 32px;&quot;&gt;Backup Thread&lt;/font&gt;" style="rounded=0;whiteSpace=wrap;html=1;fillColor=#CCCCCC;fontSize=20;" vertex="1" parent="1">
          <mxGeometry x="-420" y="640" width="240" height="80" as="geometry" />
        </mxCell>
        <mxCell id="nN0O7QRVwU9NLzJ40oYi-48" value="" style="endArrow=classic;html=1;rounded=0;strokeWidth=3;" edge="1" parent="1">
          <mxGeometry width="50" height="50" relative="1" as="geometry">
            <mxPoint x="-180" y="680" as="sourcePoint" />
            <mxPoint x="20" y="680" as="targetPoint" />
          </mxGeometry>
        </mxCell>
        <mxCell id="nN0O7QRVwU9NLzJ40oYi-52" value="" style="rounded=0;whiteSpace=wrap;html=1;" vertex="1" parent="1">
          <mxGeometry x="-580" y="60" width="80" height="40" as="geometry" />
        </mxCell>
        <mxCell id="nN0O7QRVwU9NLzJ40oYi-53" value="&lt;font style=&quot;font-size: 24px;&quot;&gt;unmodified module&lt;/font&gt;" style="text;html=1;strokeColor=none;fillColor=none;align=center;verticalAlign=middle;whiteSpace=wrap;rounded=0;" vertex="1" parent="1">
          <mxGeometry x="-600" y="110" width="120" height="60" as="geometry" />
        </mxCell>
        <mxCell id="nN0O7QRVwU9NLzJ40oYi-54" value="" style="rounded=0;whiteSpace=wrap;html=1;fillColor=#CCCCCC;" vertex="1" parent="1">
          <mxGeometry x="-740" y="60" width="80" height="40" as="geometry" />
        </mxCell>
        <mxCell id="nN0O7QRVwU9NLzJ40oYi-55" value="&lt;font style=&quot;font-size: 24px;&quot;&gt;modified module&lt;/font&gt;" style="text;html=1;strokeColor=none;fillColor=none;align=center;verticalAlign=middle;whiteSpace=wrap;rounded=0;" vertex="1" parent="1">
          <mxGeometry x="-760" y="110" width="120" height="60" as="geometry" />
        </mxCell>
        <mxCell id="nN0O7QRVwU9NLzJ40oYi-56" value="&lt;font style=&quot;font-size: 30px;&quot;&gt;Migration Phases&lt;br&gt;1.x) : hybrid pre-copy&lt;br&gt;&lt;span style=&quot;white-space: pre;&quot;&gt;&#x9;&lt;/span&gt;&amp;nbsp;setup&lt;br&gt;2.x) : hybrid pre-copy&lt;br&gt;3.x) : hybrid downtime&lt;br&gt;&lt;/font&gt;" style="text;html=1;strokeColor=none;fillColor=none;align=left;verticalAlign=middle;whiteSpace=wrap;rounded=0;" vertex="1" parent="1">
          <mxGeometry x="-760" y="520" width="300" height="200" as="geometry" />
        </mxCell>
        <mxCell id="nN0O7QRVwU9NLzJ40oYi-57" value="&lt;font style=&quot;font-size: 24px;&quot;&gt;2.2) memory initial&lt;br&gt;&amp;nbsp; &amp;nbsp; &amp;nbsp;state backup&lt;/font&gt;" style="text;html=1;strokeColor=none;fillColor=none;align=center;verticalAlign=middle;whiteSpace=wrap;rounded=0;" vertex="1" parent="1">
          <mxGeometry x="320" y="419.5" width="220" height="60" as="geometry" />
        </mxCell>
        <mxCell id="nN0O7QRVwU9NLzJ40oYi-58" value="&lt;font style=&quot;&quot;&gt;&lt;font style=&quot;font-size: 24px;&quot;&gt;Iter State&lt;br style=&quot;&quot;&gt;(Duplicate)&lt;/font&gt;&lt;br style=&quot;font-size: 20px;&quot;&gt;&lt;/font&gt;" style="shape=document;whiteSpace=wrap;html=1;boundedLbl=1;fillColor=#CCCCCC;fontSize=20;" vertex="1" parent="1">
          <mxGeometry x="20" y="500" width="140" height="80" as="geometry" />
        </mxCell>
        <mxCell id="nN0O7QRVwU9NLzJ40oYi-59" value="&lt;font style=&quot;&quot;&gt;&lt;font style=&quot;font-size: 24px;&quot;&gt;Iter State&lt;/font&gt;&lt;br style=&quot;font-size: 20px;&quot;&gt;&lt;/font&gt;" style="shape=document;whiteSpace=wrap;html=1;boundedLbl=1;fontSize=20;" vertex="1" parent="1">
          <mxGeometry x="180" y="500" width="140" height="80" as="geometry" />
        </mxCell>
        <mxCell id="nN0O7QRVwU9NLzJ40oYi-60" value="&lt;font style=&quot;font-size: 24px;&quot;&gt;3.3) dirty memory backup&lt;/font&gt;" style="text;html=1;strokeColor=none;fillColor=none;align=center;verticalAlign=middle;whiteSpace=wrap;rounded=0;" vertex="1" parent="1">
          <mxGeometry x="300" y="620" width="220" height="60" as="geometry" />
        </mxCell>
        <mxCell id="nN0O7QRVwU9NLzJ40oYi-61" value="&lt;font style=&quot;font-size: 40px;&quot;&gt;Backup Host&lt;/font&gt;" style="rounded=0;whiteSpace=wrap;html=1;" vertex="1" parent="1">
          <mxGeometry x="420" y="960" width="280" height="80" as="geometry" />
        </mxCell>
        <mxCell id="nN0O7QRVwU9NLzJ40oYi-62" value="" style="endArrow=classic;html=1;rounded=0;strokeWidth=3;" edge="1" parent="1">
          <mxGeometry width="50" height="50" relative="1" as="geometry">
            <mxPoint x="-220" y="580" as="sourcePoint" />
            <mxPoint x="-220" y="640" as="targetPoint" />
          </mxGeometry>
        </mxCell>
        <mxCell id="nN0O7QRVwU9NLzJ40oYi-64" value="" style="endArrow=classic;html=1;rounded=0;strokeWidth=3;" edge="1" parent="1">
          <mxGeometry width="50" height="50" relative="1" as="geometry">
            <mxPoint x="-520" y="400" as="sourcePoint" />
            <mxPoint x="-420" y="400" as="targetPoint" />
          </mxGeometry>
        </mxCell>
        <mxCell id="nN0O7QRVwU9NLzJ40oYi-65" value="" style="endArrow=classic;html=1;rounded=0;strokeWidth=3;strokeColor=#0066CC;" edge="1" parent="1">
          <mxGeometry width="50" height="50" relative="1" as="geometry">
            <mxPoint x="300" y="380" as="sourcePoint" />
            <mxPoint x="700" y="380" as="targetPoint" />
          </mxGeometry>
        </mxCell>
      </root>
    </mxGraphModel>
  </diagram>
</mxfile>
